<?xml version="1.0" standalone="no"?>
<!DOCTYPE svg PUBLIC "-//W3C//DTD SVG 20010904//EN"
 "http://www.w3.org/TR/2001/REC-SVG-20010904/DTD/svg10.dtd">
<svg version="1.0" xmlns="http://www.w3.org/2000/svg"
 width="700.000000pt" height="700.000000pt" viewBox="0 0 700.000000 700.000000"
 preserveAspectRatio="xMidYMid meet">
<metadata>
Created by potrace 1.14, written by Peter Selinger 2001-2017
</metadata>
<g transform="translate(0.000000,700.000000) scale(0.100000,-0.100000)"
fill="#000000" stroke="none">
<path d="M2900 5910 c-94 -49 -233 -252 -307 -449 -37 -98 -55 -243 -55 -436
0 -149 7 -224 38 -445 4 -34 2 -37 -87 -105 -143 -109 -334 -280 -405 -364
-169 -197 -277 -424 -306 -640 -20 -150 10 -368 72 -521 75 -189 253 -361 498
-484 117 -59 180 -70 399 -71 l191 0 32 -200 c56 -353 59 -479 11 -579 -31
-62 -128 -151 -208 -189 -62 -29 -77 -32 -163 -32 -69 0 -109 5 -145 19 -53
20 -105 52 -105 65 0 4 18 13 39 20 22 6 65 29 96 49 130 87 169 229 95 345
-93 147 -298 170 -417 45 -57 -60 -77 -120 -78 -233 0 -92 2 -104 29 -153 54
-97 138 -157 286 -204 101 -31 276 -32 361 -1 165 61 286 203 309 363 13 93
-9 314 -65 645 l-5 30 883 -3 c634 -2 897 0 935 8 174 38 317 170 366 339 14
48 16 170 16 1042 0 941 -1 990 -19 1048 -49 157 -184 283 -348 326 -48 13
-177 15 -826 15 l-769 0 6 23 c3 12 11 54 17 94 33 211 -86 502 -255 625 -45
33 -68 34 -116 8z m164 -400 c65 -57 91 -177 62 -289 -41 -161 -200 -381 -395
-548 -65 -55 -76 -62 -82 -46 -4 10 -8 79 -8 155 -2 348 112 658 271 737 62
31 110 28 152 -9z m1733 -720 c67 -40 63 19 63 -1020 0 -1039 4 -980 -63
-1020 -31 -19 -55 -20 -724 -20 l-692 0 35 73 c49 105 67 200 60 322 -10 181
-62 308 -175 427 -99 106 -218 154 -411 167 l-94 6 -40 233 -40 234 45 36
c142 114 282 292 370 470 l54 111 790 1 c766 0 791 -1 822 -20z m-2107 -866
c16 -99 30 -189 30 -200 0 -14 -13 -24 -52 -38 -166 -58 -328 -241 -368 -415
-15 -66 -8 -197 15 -261 38 -108 133 -214 258 -289 29 -18 41 -20 52 -11 11 9
3 22 -49 73 -38 38 -74 86 -92 122 -25 52 -29 71 -29 145 0 69 4 94 24 134 31
64 82 113 147 143 51 23 154 43 154 29 0 -4 32 -198 71 -432 39 -234 69 -427
67 -430 -11 -10 -119 -24 -195 -24 -290 0 -575 166 -702 409 -50 97 -71 181
-71 291 0 146 44 267 166 453 78 119 247 293 419 430 94 75 111 85 117 70 4
-10 21 -99 38 -199z m352 -580 c151 -59 229 -197 229 -404 0 -174 -44 -277
-155 -361 -27 -21 -66 -44 -87 -52 -38 -15 -39 -15 -44 6 -2 12 -32 193 -65
402 -33 209 -63 393 -66 409 l-6 29 75 -6 c42 -4 95 -14 119 -23z"/>
</g>
</svg>
