<?xml version="1.0" standalone="no"?>
<!DOCTYPE svg PUBLIC "-//W3C//DTD SVG 20010904//EN"
 "http://www.w3.org/TR/2001/REC-SVG-20010904/DTD/svg10.dtd">
<svg version="1.0" xmlns="http://www.w3.org/2000/svg"
 width="700.000000pt" height="700.000000pt" viewBox="0 0 700.000000 700.000000"
 preserveAspectRatio="xMidYMid meet">
<metadata>
Created by potrace 1.14, written by Peter Selinger 2001-2017
</metadata>
<g transform="translate(0.000000,700.000000) scale(0.100000,-0.100000)"
fill="#000000" stroke="none">
<path d="M2730 6452 c-144 -70 -383 -461 -435 -711 -42 -206 -45 -574 -6 -861
12 -85 24 -162 26 -170 3 -10 -20 -34 -67 -70 -142 -108 -373 -305 -473 -404
-244 -241 -416 -545 -481 -848 -36 -166 -19 -435 41 -643 90 -312 315 -557
677 -734 122 -60 177 -75 334 -92 111 -11 357 -7 409 7 20 5 23 -8 64 -268 58
-362 68 -472 53 -594 -14 -126 -45 -188 -134 -276 -84 -82 -197 -142 -306
-160 -125 -21 -296 17 -372 82 l-35 29 25 8 c14 3 59 24 100 44 200 100 276
280 192 452 -67 135 -208 209 -355 186 -162 -26 -269 -144 -298 -328 -37 -242
94 -430 364 -519 347 -115 656 -25 831 242 74 112 99 259 77 451 -10 84 -69
499 -86 601 l-5 31 64 -9 c36 -5 557 -7 1158 -6 1215 4 1132 -1 1275 72 162
83 283 234 328 411 23 90 22 2527 -1 2625 -47 202 -203 374 -411 453 l-58 22
-1017 5 c-559 3 -1019 8 -1022 11 -4 3 1 37 10 75 22 95 14 299 -15 404 -67
236 -268 500 -380 500 -20 0 -52 -8 -71 -18z m186 -501 c102 -62 148 -253 100
-416 -26 -88 -104 -231 -187 -342 -105 -140 -407 -438 -425 -420 -3 3 -8 72
-11 154 -11 293 40 567 145 782 97 201 267 310 378 242z m2240 -933 c44 -24
92 -82 99 -120 3 -18 4 -573 3 -1234 l-3 -1200 -27 -41 c-14 -22 -43 -48 -65
-59 -36 -18 -76 -19 -929 -22 l-892 -2 33 62 c109 204 130 462 59 692 -61 194
-198 368 -351 445 -104 52 -358 100 -452 85 l-38 -6 -7 53 c-4 30 -27 169 -52
309 l-44 255 33 25 c142 110 288 268 388 420 28 41 82 139 121 218 l72 142
1010 -2 c929 -3 1014 -4 1042 -20z m-2701 -1119 c25 -145 45 -272 45 -281 0
-10 -12 -19 -32 -23 -124 -28 -297 -155 -393 -290 -185 -259 -177 -560 21
-801 38 -48 144 -130 217 -170 43 -23 51 -25 64 -11 13 13 6 24 -66 94 -161
159 -206 337 -127 508 60 132 173 212 327 234 57 7 58 7 63 -18 3 -14 44 -258
91 -541 47 -283 87 -525 90 -537 4 -19 -1 -23 -47 -32 -207 -45 -473 -9 -671
90 -124 63 -193 113 -287 209 -164 167 -250 369 -250 588 0 120 29 234 94 367
148 303 349 525 771 852 22 17 41 30 42 29 2 -1 23 -121 48 -267z m387 -740
c183 -38 311 -175 354 -380 22 -101 14 -301 -14 -379 -51 -144 -127 -232 -255
-295 -42 -21 -79 -36 -81 -34 -4 4 -159 947 -172 1047 l-7 52 61 0 c34 0 85
-5 114 -11z"/>
</g>
</svg>
