<?xml version="1.0" standalone="no"?>
<!DOCTYPE svg PUBLIC "-//W3C//DTD SVG 20010904//EN"
 "http://www.w3.org/TR/2001/REC-SVG-20010904/DTD/svg10.dtd">
<svg version="1.0" xmlns="http://www.w3.org/2000/svg"
 width="700.000000pt" height="700.000000pt" viewBox="0 0 700.000000 700.000000"
 preserveAspectRatio="xMidYMid meet">
<metadata>
Created by potrace 1.14, written by Peter Selinger 2001-2017
</metadata>
<g transform="translate(0.000000,700.000000) scale(0.100000,-0.100000)"
fill="#000000" stroke="none">
<path d="M2693 6609 c-117 -58 -306 -330 -407 -585 -69 -176 -91 -352 -83
-691 4 -210 31 -493 53 -565 3 -12 -35 -48 -141 -132 -444 -354 -636 -568
-793 -881 -165 -330 -197 -633 -107 -1011 51 -215 139 -370 304 -535 159 -159
427 -325 586 -364 135 -32 421 -46 577 -26 l56 7 36 -226 c63 -393 68 -432 68
-575 0 -195 -20 -260 -108 -366 -159 -190 -409 -261 -637 -180 -64 22 -153 80
-140 90 4 4 35 18 68 30 118 44 225 135 268 229 34 73 31 198 -6 274 -32 65
-103 134 -174 169 -67 33 -225 35 -294 3 -93 -43 -162 -124 -198 -231 -84
-252 15 -478 261 -597 243 -117 499 -126 708 -24 140 68 273 218 322 365 41
121 35 267 -27 683 -18 124 -36 248 -40 275 l-6 50 1185 -3 c1335 -3 1262 -7
1424 73 155 77 268 206 330 377 l27 73 3 1340 c3 1503 7 1412 -70 1568 -59
117 -171 228 -288 285 -155 76 -88 72 -1210 72 -553 0 -1022 3 -1043 7 -33 5
-38 9 -33 27 38 132 39 316 2 459 -59 230 -216 471 -353 541 -42 21 -69 20
-120 -5z m181 -523 c105 -44 163 -243 122 -418 -23 -96 -100 -250 -184 -367
-74 -104 -265 -308 -382 -408 -72 -62 -74 -63 -83 -41 -17 41 -12 392 7 513
42 271 126 492 231 612 90 103 202 145 289 109z m2343 -987 c40 -15 82 -57
104 -104 18 -38 19 -95 19 -1310 0 -1219 -1 -1272 -19 -1311 -22 -49 -70 -88
-126 -103 -52 -14 -1841 -16 -1850 -1 -3 5 10 41 30 79 19 39 47 110 62 158
24 79 27 104 27 248 0 133 -3 175 -22 248 -27 107 -77 218 -136 301 -53 75
-172 188 -225 216 -111 56 -309 100 -454 100 -54 0 -79 4 -81 13 -2 6 -27 151
-56 321 -43 257 -50 310 -39 320 8 7 58 50 113 97 175 149 346 384 462 634
l49 105 1057 0 c722 0 1066 -3 1085 -11z m-2813 -1200 c26 -160 44 -295 39
-299 -4 -4 -33 -15 -63 -24 -139 -44 -327 -203 -414 -351 -72 -123 -99 -218
-99 -345 1 -170 34 -274 132 -409 49 -68 170 -171 252 -216 50 -27 51 -27 70
-8 19 18 18 19 -31 56 -66 49 -125 125 -169 217 -35 72 -36 79 -36 185 0 103
2 114 32 177 38 81 104 155 171 191 56 30 150 57 202 57 l35 0 93 -568 c52
-312 96 -579 99 -593 4 -25 2 -26 -64 -37 -228 -37 -437 -14 -635 72 -435 188
-686 615 -602 1024 35 170 175 434 329 618 81 98 232 245 380 371 86 74 215
173 224 173 3 0 28 -131 55 -291z m415 -774 c242 -58 372 -253 373 -565 1
-207 -44 -335 -159 -449 -67 -66 -189 -138 -216 -128 -8 3 -45 209 -100 558
-48 305 -90 564 -93 577 -4 21 -2 22 63 22 38 0 97 -7 132 -15z"/>
</g>
</svg>
